<?xml version="1.0" encoding="UTF-8"?>
<svg version="1.1" xmlns="http://www.w3.org/2000/svg" width="200" height="200">
<path d="M0 0 C4.86033397 0.4273617 8.78281621 2.10078909 13.0625 4.3125 C13.66126953 4.60833984 14.26003906 4.90417969 14.87695312 5.20898438 C24.80353228 10.24294511 30.26772666 17.28824161 34.23828125 27.5078125 C35.09679202 30.31668363 35.53906422 33.10204977 36 36 C37.30557861 35.97905273 38.61115723 35.95810547 39.95629883 35.93652344 C44.84469441 35.8635967 49.73304283 35.81801009 54.62182617 35.78027344 C56.72933057 35.76027722 58.83678034 35.73307107 60.9440918 35.69824219 C76.46283859 35.44835472 88.17487303 35.37281724 99.90234375 46.69140625 C104.8568043 52.14408071 108.21474065 58.64129477 108.30639648 66.09057617 C108.33037758 67.57318184 108.33037758 67.57318184 108.35484314 69.08573914 C108.36020584 70.14412491 108.36556854 71.20251068 108.37109375 72.29296875 C108.38012222 73.39417557 108.3891507 74.49538239 108.39845276 75.62995911 C108.41294628 77.95908902 108.42183976 80.28825957 108.42553711 82.61743164 C108.43740039 86.15777426 108.48657002 89.69635478 108.53710938 93.23632812 C108.54657816 95.50519988 108.55381101 97.77408228 108.55859375 100.04296875 C108.58789223 101.61536568 108.58789223 101.61536568 108.61778259 103.2195282 C108.56038332 112.70305748 105.20977364 120.38207928 98.80859375 127.3984375 C91.44049475 133.923104 84.71876484 136.14669796 75.08544922 136.16113281 C74.29138168 136.16609772 73.49731415 136.17106262 72.67918396 136.17617798 C70.05434293 136.19077089 67.42956242 136.1975983 64.8046875 136.203125 C62.97348022 136.20888065 61.14227294 136.21463833 59.31106567 136.22039795 C55.46941854 136.23090105 51.62779228 136.23674763 47.78613281 136.24023438 C42.88384406 136.24570489 37.98183504 136.26970488 33.07963371 136.29820633 C29.29445617 136.31691365 25.50934476 136.32204269 21.72412491 136.32357025 C19.91816816 136.32658118 18.11221214 136.33455651 16.30630112 136.34775543 C3.87907657 136.43206837 -6.91309681 136.44373813 -16.890625 128.09375 C-25.63627317 119.41288441 -28.30429318 111.15087022 -28.40625 99.1171875 C-28.42335022 97.54120285 -28.42335022 97.54120285 -28.4407959 95.93338013 C-28.45964778 93.71278885 -28.47274472 91.49214224 -28.48046875 89.27148438 C-28.49981867 85.90653399 -28.56187483 82.5440619 -28.625 79.1796875 C-28.76588302 64.93367101 -27.96489631 55.43794368 -18.125 44.5 C-11.17375777 38.08244239 -4.07176585 35.77016402 5.2578125 35.83203125 C8.43105783 36.02640383 11.08441473 36.73920637 14 38 C13.49210937 37.68289062 12.98421875 37.36578125 12.4609375 37.0390625 C5.64928482 32.42142529 0.7027511 26.19466772 -1 18 C-1.08778022 16.64404403 -1.13057475 15.28457371 -1.1328125 13.92578125 C-1.13474609 12.80139648 -1.13474609 12.80139648 -1.13671875 11.65429688 C-1.13285156 10.88150391 -1.12898438 10.10871094 -1.125 9.3125 C-1.13080078 8.1359082 -1.13080078 8.1359082 -1.13671875 6.93554688 C-1.12667749 1.12667749 -1.12667749 1.12667749 0 0 Z M34 42 C33.34 42.66 32.68 43.32 32 44 C32.99 44.33 33.98 44.66 35 45 C34.67 44.01 34.34 43.02 34 42 Z M5.59765625 66.83984375 C1.48362996 72.04838984 2.24415031 78.23623368 2.4375 84.5625 C2.43943359 85.76841797 2.44136719 86.97433594 2.44335938 88.21679688 C2.53494455 94.35978769 2.81788462 98.60594385 6 104 C10.29800397 107.97565367 13.42780324 109.11894233 19.20239258 109.16113281 C20.26392044 109.17074036 21.3254483 109.1803479 22.41914368 109.19024658 C23.56602158 109.19449646 24.71289948 109.19874634 25.89453125 109.203125 C27.07464279 109.20882507 28.25475433 109.21452515 29.47062683 109.22039795 C31.96974795 109.22985036 34.46888155 109.23638288 36.96801758 109.24023438 C40.78684301 109.24993483 44.60512915 109.28095476 48.42382812 109.3125 C50.8515593 109.3190306 53.27929433 109.32428085 55.70703125 109.328125 C56.84783646 109.3404718 57.98864166 109.3528186 59.16401672 109.36553955 C64.8357594 109.34964627 69.15033248 109.31019472 74 106 C79.38627886 100.24225363 78.25158803 92.59033504 78.3125 85.1875 C78.34150391 84.02412109 78.37050781 82.86074219 78.40039062 81.66210938 C78.45059209 74.87718822 78.18105207 70.4552048 74 65 C69.8515447 61.9645449 66.27135306 60.87926286 61.18066406 60.83886719 C60.2024469 60.82925964 59.22422974 60.8196521 58.21636963 60.80975342 C57.1601239 60.80550354 56.10387817 60.80125366 55.015625 60.796875 C53.92666931 60.79117493 52.83771362 60.78547485 51.71575928 60.77960205 C49.40914888 60.77015059 47.10252498 60.76361749 44.79589844 60.75976562 C41.27775287 60.75007643 37.76019553 60.71906049 34.2421875 60.6875 C32.00000346 60.68096816 29.75781526 60.6757184 27.515625 60.671875 C26.4674762 60.6595282 25.41932739 60.6471814 24.3394165 60.63446045 C17.14859062 60.65624064 10.84348012 61.34973567 5.59765625 66.83984375 Z " fill="#E37A25" transform="translate(60,32)"/>
<path d="M0 0 C4.86033397 0.4273617 8.78281621 2.10078909 13.0625 4.3125 C13.66126953 4.60833984 14.26003906 4.90417969 14.87695312 5.20898438 C24.51580365 10.09703234 30.55356514 17.26135691 34.31640625 27.33203125 C35.56337322 32.19876521 36.30828404 38.38343191 34 43 C32.741875 43.020625 31.48375 43.04125 30.1875 43.0625 C29.12595703 43.07990234 29.12595703 43.07990234 28.04296875 43.09765625 C26 43 26 43 23 42 C23 41.34 23 40.68 23 40 C22.030625 39.95875 21.06125 39.9175 20.0625 39.875 C13.98262296 38.96424919 9.06533095 35.46081985 5.1640625 30.8125 C0.26907942 23.74462199 -1.32513395 17.68458529 -1.1875 9.1875 C-1.18685547 8.41212891 -1.18621094 7.63675781 -1.18554688 6.83789062 C-1.140687 1.140687 -1.140687 1.140687 0 0 Z " fill="#9CC73C" transform="translate(60,32)"/>
<path d="M0 0 C0.99 0.495 0.99 0.495 2 1 C2.12746075 8.07988112 2.21462725 15.15946305 2.2746582 22.24023438 C2.29970084 24.6456203 2.333745 27.05093089 2.37719727 29.45605469 C2.4382988 32.92662206 2.46631363 36.39617772 2.48828125 39.8671875 C2.51408768 40.93113739 2.5398941 41.99508728 2.56648254 43.09127808 C2.57002253 52.65517813 -0.7355419 60.32213943 -7.19140625 67.3984375 C-14.59575155 73.95520116 -21.31468557 76.1553842 -30.99389648 76.12939453 C-31.79599548 76.13114685 -32.59809448 76.13289917 -33.42449951 76.13470459 C-36.07338633 76.13910224 -38.72220626 76.13619216 -41.37109375 76.1328125 C-43.21427931 76.1334862 -45.05746477 76.13445679 -46.90065002 76.13571167 C-50.76328375 76.13718587 -54.62589435 76.13504323 -58.48852539 76.13037109 C-63.43604343 76.12467798 -68.38350717 76.12795193 -73.33102322 76.13394356 C-77.13744006 76.13756006 -80.94384407 76.1364055 -84.75026131 76.13381577 C-86.57429066 76.13314931 -88.39832118 76.1339651 -90.22234917 76.13629532 C-92.77383375 76.13883923 -95.3252309 76.13495651 -97.87670898 76.12939453 C-99.00448509 76.13243088 -99.00448509 76.13243088 -100.15504456 76.13552856 C-103.89550207 76.12044933 -107.36308368 75.89798271 -111 75 C-111 74.67 -111 74.34 -111 74 C-109.88135559 73.99191315 -108.76271118 73.98382629 -107.61016846 73.97549438 C-97.07455282 73.89805258 -86.53906664 73.81031818 -76.00362015 73.71247292 C-70.58707497 73.66249986 -65.17054939 73.61616981 -59.75390625 73.578125 C-54.52779961 73.54128509 -49.30185654 73.49492848 -44.07588959 73.44193649 C-42.08080664 73.42338569 -40.08568861 73.40828028 -38.09055328 73.39665604 C-35.29880476 73.37980544 -32.50743143 73.35077309 -29.71582031 73.31884766 C-28.47504227 73.31560738 -28.47504227 73.31560738 -27.209198 73.31230164 C-21.769207 73.29367794 -21.769207 73.29367794 -17 71 C-16.01 69.515 -16.01 69.515 -15 68 C-13.515 68.495 -13.515 68.495 -12 69 C-11.896875 68.38125 -11.79375 67.7625 -11.6875 67.125 C-11 65 -11 65 -8 63 C-7.01 62.67 -6.02 62.34 -5 62 C-3.86454438 59.70465742 -3.86454438 59.70465742 -3 57 C-2.6572403 56.2284407 -2.31448059 55.45688141 -1.96133423 54.66194153 C-0.93630089 51.8236167 -0.72506086 49.66666911 -0.68115234 46.65893555 C-0.66128265 45.6182341 -0.64141296 44.57753265 -0.62094116 43.5052948 C-0.60938995 42.3936647 -0.59783875 41.28203461 -0.5859375 40.13671875 C-0.56657135 38.98959915 -0.5472052 37.84247955 -0.5272522 36.66059875 C-0.46755533 33.0029744 -0.42110998 29.34531841 -0.375 25.6875 C-0.33681117 23.20506453 -0.29775892 20.72264218 -0.2578125 18.24023438 C-0.16186181 12.16027288 -0.07678522 6.08023211 0 0 Z " fill="#BE7132" transform="translate(166,92)"/>
<path d="M0 0 C5.0997568 4.02924021 9.089367 8.29116466 12.875 13.5625 C13.3596875 14.20896484 13.844375 14.85542969 14.34375 15.52148438 C16.84760979 18.95904607 18.61513049 21.64093444 19 26 C19.66 26 20.32 26 21 26 C20.505 21.05 20.505 21.05 20 16 C23 19 23 19 23.328125 21.62890625 C23.28945312 23.08103516 23.28945312 23.08103516 23.25 24.5625 C23.23453125 25.53316406 23.2190625 26.50382812 23.203125 27.50390625 C23 30 23 30 22 32 C20.741875 32.020625 19.48375 32.04125 18.1875 32.0625 C17.12595703 32.07990234 17.12595703 32.07990234 16.04296875 32.09765625 C14 32 14 32 11 31 C11 30.34 11 29.68 11 29 C10.030625 28.95875 9.06125 28.9175 8.0625 28.875 C1.94189309 27.95814795 -2.90211883 24.40740462 -6.90625 19.8125 C-9.95639848 15.55380212 -11.83294341 12.41413219 -11 7 C-8.48359816 8.25820092 -8.38448062 9.14093969 -7.3125 11.6875 C-2.34707344 21.70765935 7.09286026 24.40435855 17 28 C13.11882645 19.45143445 9.07663118 12.27985254 2.8203125 5.20703125 C1 3 1 3 0 0 Z " fill="#669A3F" transform="translate(72,43)"/>
<path d="M0 0 C2.99324263 1.0975223 3.84610901 1.67682892 5.25 4.625 C5.4975 5.40875 5.745 6.1925 6 7 C6.66 7 7.32 7 8 7 C9.66788546 12.44465946 9.3009373 18.20366317 9.35009766 23.84448242 C9.36667994 25.2382067 9.39400091 26.63184515 9.43212891 28.02514648 C9.48704223 30.04619547 9.50565983 32.06812705 9.5234375 34.08984375 C9.5531665 35.89763306 9.5531665 35.89763306 9.58349609 37.74194336 C8.67934414 42.79044035 5.74049082 44.78330127 1.68302917 47.61968994 C-1.3868137 49.19900001 -3.27543015 49.36382327 -6.70825195 49.34057617 C-7.82903641 49.34034958 -8.94982086 49.34012299 -10.10456848 49.33988953 C-11.3036937 49.32440567 -12.50281891 49.30892181 -13.73828125 49.29296875 C-14.97418503 49.28872391 -16.21008881 49.28447906 -17.48344421 49.28010559 C-20.75676082 49.26617779 -24.02962908 49.23925977 -27.30279541 49.20599365 C-30.64778515 49.17521247 -33.99279447 49.16183918 -37.33789062 49.14648438 C-43.89210181 49.11342643 -50.44601425 49.06323464 -57 49 C-57 48.67 -57 48.34 -57 48 C-56.33680756 47.99413376 -55.67361511 47.98826752 -54.99032593 47.98222351 C-48.07937152 47.91822292 -41.1688799 47.83378543 -34.25830078 47.73754883 C-31.6802379 47.70432219 -29.10210267 47.67628327 -26.52392578 47.65356445 C-22.81511646 47.61997793 -19.1069688 47.56765756 -15.3984375 47.51171875 C-14.24822113 47.50532883 -13.09800476 47.4989389 -11.91293335 47.49235535 C-4.02605147 47.37446189 -4.02605147 47.37446189 3 44 C6.96648946 37.82804178 6.481555 31.14491972 6.4375 24 C6.45748047 22.85015625 6.47746094 21.7003125 6.49804688 20.515625 C6.49351269 12.6442771 5.61472692 8.00201909 0.25 2.0625 C-0.1625 1.711875 -0.575 1.36125 -1 1 C-0.67 0.67 -0.34 0.34 0 0 Z " fill="#BC7D49" transform="translate(131,93)"/>
<path d="M0 0 C1.04028969 3.38094149 1.15672777 6.47362528 1 10 C0.67 10.33 0.34 10.66 0 11 C-0.12209924 12.41117702 -0.17770872 13.82820459 -0.20532227 15.24438477 C-0.22526749 16.14524307 -0.24521271 17.04610138 -0.26576233 17.97425842 C-0.28247482 18.95341721 -0.29918732 19.93257599 -0.31640625 20.94140625 C-0.33718735 21.93881332 -0.35796844 22.9362204 -0.37937927 23.96385193 C-0.44498637 27.16332843 -0.50381134 30.36288982 -0.5625 33.5625 C-0.60567462 35.72592039 -0.64928855 37.88933206 -0.69335938 40.05273438 C-0.80067903 45.36839874 -0.90242427 50.68414834 -1 56 C-1.66 56 -2.32 56 -3 56 C-3.07626922 49.14989378 -3.12869186 42.2998977 -3.16479492 35.44946289 C-3.17985089 33.12064522 -3.20030004 30.79185576 -3.22631836 28.46313477 C-3.26284133 25.10946679 -3.27975871 21.75617482 -3.29296875 18.40234375 C-3.30845261 17.36665756 -3.32393646 16.33097137 -3.33988953 15.26390076 C-3.34125043 9.37516306 -2.77592575 5.22207024 0 0 Z " fill="#BC7035" transform="translate(35,86)"/>
<path d="M0 0 C2.15647888 -0.3742218 2.15647888 -0.3742218 4.86108398 -0.37231445 C5.8723082 -0.37854324 6.88353241 -0.38477203 7.92539978 -0.39118958 C9.02122879 -0.38197983 10.1170578 -0.37277008 11.24609375 -0.36328125 C12.92917381 -0.36402901 12.92917381 -0.36402901 14.64625549 -0.36479187 C17.02273323 -0.36244801 19.39921329 -0.35270127 21.77563477 -0.33618164 C25.4190079 -0.31261959 29.06164834 -0.31561478 32.70507812 -0.32226562 C35.01042104 -0.31668814 37.31576087 -0.30957782 39.62109375 -0.30078125 C41.26180092 -0.30214836 41.26180092 -0.30214836 42.93565369 -0.30354309 C43.95003006 -0.29401108 44.96440643 -0.28447906 46.00952148 -0.2746582 C46.90283676 -0.27005081 47.79615204 -0.26544342 48.71653748 -0.26069641 C51 0 51 0 54 2 C50.9714581 3.00951397 48.95994658 3.121045 45.79418945 3.11352539 C44.20287956 3.11341209 44.20287956 3.11341209 42.579422 3.11329651 C41.43559555 3.10813522 40.2917691 3.10297394 39.11328125 3.09765625 C37.94113571 3.0962413 36.76899017 3.09482635 35.56132507 3.09336853 C31.81169093 3.08776388 28.06211615 3.07521056 24.3125 3.0625 C21.77278732 3.0574856 19.2330737 3.05292259 16.69335938 3.04882812 C10.46221927 3.03779294 4.23111388 3.02105025 -2 3 C-1.34 2.01 -0.68 1.02 0 0 Z " fill="#C2763A" transform="translate(75,91)"/>
<path d="M0 0 C2.57385881 0.98386412 4.55668794 1.02948054 7.2890625 0.875 C6.1640625 2.4375 6.1640625 2.4375 4.2890625 3.875 C0.64171271 3.65169287 -1.09466585 3.49127165 -3.7109375 0.875 C-11.05937345 -0.67947683 -18.28390359 0.19697022 -25.7109375 0.875 C-26.3709375 2.525 -27.0309375 4.175 -27.7109375 5.875 C-27.0509375 6.205 -26.3909375 6.535 -25.7109375 6.875 C-26.0409375 7.535 -26.3709375 8.195 -26.7109375 8.875 C-27.3709375 8.875 -28.0309375 8.875 -28.7109375 8.875 C-28.7109375 8.215 -28.7109375 7.555 -28.7109375 6.875 C-29.7009375 7.205 -30.6909375 7.535 -31.7109375 7.875 C-32.3709375 7.215 -33.0309375 6.555 -33.7109375 5.875 C-23.79359228 -3.70143648 -12.73756954 -6.13448165 0 0 Z " fill="#BC793B" transform="translate(75.7109375,71.125)"/>
<path d="M0 0 C6.75106294 3.17697079 11.36356136 10.17627647 14 17 C13.6875 18.9375 13.6875 18.9375 13 21 C12.96111651 23.33300933 12.9551365 25.66709801 13 28 C12.34 28 11.68 28 11 28 C9.30855055 24.41810705 8.94327129 22.75725762 10 19 C10.00635246 16.36462492 10.00635246 16.36462492 9 14 C8.175 13.67 7.35 13.34 6.5 13 C5.2625 12.505 5.2625 12.505 4 12 C3.1875 9.375 3.1875 9.375 3 7 C2.34 7 1.68 7 1 7 C1 5.68 1 4.36 1 3 C0.34 2.67 -0.32 2.34 -1 2 C-0.67 1.34 -0.34 0.68 0 0 Z " fill="#9DBE4E" transform="translate(80,41)"/>
<path d="M0 0 C1.32 0.33 2.64 0.66 4 1 C3.50628906 1.40992187 3.01257813 1.81984375 2.50390625 2.2421875 C1.86324219 2.78101562 1.22257812 3.31984375 0.5625 3.875 C-0.07558594 4.40867187 -0.71367188 4.94234375 -1.37109375 5.4921875 C-3.59169796 7.54771082 -3.97623226 8.57289964 -4.14526367 11.61035156 C-4.16981252 15.15700035 -4.18566231 18.70325942 -4.1875 22.25 C-4.19974609 23.47847656 -4.21199219 24.70695312 -4.22460938 25.97265625 C-4.22654297 27.16246094 -4.22847656 28.35226563 -4.23046875 29.578125 C-4.23457764 30.66512695 -4.23868652 31.75212891 -4.24291992 32.87207031 C-3.98491872 36.19419226 -3.17789871 38.8943389 -2 42 C-2.66 42 -3.32 42 -4 42 C-7.68880647 35.33856492 -7.5160633 28.92701588 -7.5 21.4375 C-7.52835938 20.23158203 -7.55671875 19.02566406 -7.5859375 17.78320312 C-7.60768384 7.93754613 -7.60768384 7.93754613 -4.59375 4.16015625 C-2 2 -2 2 0 2 C0 1.34 0 0.68 0 0 Z " fill="#BA753D" transform="translate(68,94)"/>
<path d="M0 0 C15.18 0 30.36 0 46 0 C46 0.33 46 0.66 46 1 C44.81446533 0.99363525 43.62893066 0.98727051 42.4074707 0.98071289 C37.99940506 0.96625836 33.59264022 0.99764242 29.18481445 1.04272461 C27.27893503 1.05584626 25.37292822 1.05661508 23.46704102 1.04467773 C20.72284883 1.02965087 17.9821845 1.05936412 15.23828125 1.09765625 C14.38913651 1.08340103 13.53999176 1.06914581 12.66511536 1.05445862 C8.04055675 1.13308562 8.04055675 1.13308562 4.3164978 3.61837769 C2.73275201 5.74263888 2.73275201 5.74263888 1 9 C-1.33760758 5.28732913 -0.9611085 4.80554252 0 0 Z " fill="#CC8F58" transform="translate(95,68)"/>
<path d="M0 0 C0.66 0 1.32 0 2 0 C0.98959062 7.56441615 -4.04024737 13.59469139 -9.8359375 18.3046875 C-17.06655317 23.13155962 -17.06655317 23.13155962 -20.328125 22.671875 C-21.15570313 22.33929688 -21.15570313 22.33929688 -22 22 C-20 20 -20 20 -18 19.5625 C-15.61359262 19.12541292 -15.61359262 19.12541292 -14 16 C-13.01 16.33 -12.02 16.66 -11 17 C-10.896875 16.38125 -10.79375 15.7625 -10.6875 15.125 C-10 13 -10 13 -7 11 C-6.01 10.67 -5.02 10.34 -4 10 C-2.86454438 7.70465742 -2.86454438 7.70465742 -2 5 C-1.33333333 3.33333333 -0.66666667 1.66666667 0 0 Z " fill="#C4773C" transform="translate(165,144)"/>
<path d="M0 0 C6.17471146 -0.04949211 12.34930705 -0.08576343 18.52416992 -0.10986328 C20.62412528 -0.11991169 22.72406669 -0.13355266 24.82397461 -0.15087891 C27.8449244 -0.17517801 30.86568895 -0.18649482 33.88671875 -0.1953125 C35.29167854 -0.21079636 35.29167854 -0.21079636 36.72502136 -0.22659302 C41.25722281 -0.22737055 44.89083578 -0.17300725 49 2 C49 2.66 49 3.32 49 4 C48.46202286 3.86042877 47.92404572 3.72085754 47.36976624 3.57705688 C41.64574375 2.18595841 36.24898834 1.667889 30.37109375 1.5859375 C29.49598648 1.56657135 28.62087921 1.5472052 27.71925354 1.5272522 C24.95876424 1.46807537 22.19823182 1.42132181 19.4375 1.375 C17.55141537 1.33676308 15.66534714 1.29770815 13.77929688 1.2578125 C9.18633308 1.16242582 4.59328775 1.0781701 0 1 C0 0.67 0 0.34 0 0 Z " fill="#C06A25" transform="translate(101,69)"/>
<path d="M0 0 C5.07525584 4.01830061 9.08623834 8.26134909 12.875 13.5 C13.3596875 14.13808594 13.844375 14.77617188 14.34375 15.43359375 C17.14360078 19.25797093 18.65484185 22.13777214 19 27 C18.34 27 17.68 27 17 27 C16.59910156 26.18917969 16.19820312 25.37835938 15.78515625 24.54296875 C12.08771458 17.3409225 8.17376632 11.35782797 2.8203125 5.2421875 C1 3 1 3 0 0 Z " fill="#75AC2B" transform="translate(72,43)"/>
<path d="M0 0 C3 3 3 3 3.328125 5.62890625 C3.30234375 6.59699219 3.2765625 7.56507812 3.25 8.5625 C3.22679688 10.01849609 3.22679688 10.01849609 3.203125 11.50390625 C3 14 3 14 2 16 C0.741875 16.04125 -0.51625 16.0825 -1.8125 16.125 C-2.52019531 16.14820312 -3.22789063 16.17140625 -3.95703125 16.1953125 C-6 16 -6 16 -9 14 C-7.35 14 -5.7 14 -4 14 C-4.66 13.34 -5.32 12.68 -6 12 C-5.401875 11.855625 -4.80375 11.71125 -4.1875 11.5625 C-2.43849596 11.1127561 -0.71322977 10.57107659 1 10 C0.67 6.7 0.34 3.4 0 0 Z " fill="#74974A" transform="translate(92,59)"/>
<path d="M0 0 C0.99 1.485 0.99 1.485 2 3 C4.05925139 3.72382467 4.05925139 3.72382467 6 4 C5.125 8.875 5.125 8.875 4 10 C3.60545777 11.84599688 3.25823134 13.70225822 2.9375 15.5625 C2.67259766 17.08037109 2.67259766 17.08037109 2.40234375 18.62890625 C2.26957031 19.41136719 2.13679688 20.19382812 2 21 C-0.71486934 17.02389214 -0.22440753 12.86098023 -0.125 8.25 C-0.11597656 7.45722656 -0.10695312 6.66445313 -0.09765625 5.84765625 C-0.07417012 3.89830719 -0.03830137 1.94911425 0 0 Z " fill="#95B951" transform="translate(59,33)"/>
<path d="M0 0 C4.81981838 4.1312729 7.7847751 9.03999014 10 15 C9.67 15.66 9.34 16.32 9 17 C6.36 16.01 3.72 15.02 1 14 C1.99 13.67 2.98 13.34 4 13 C4.66 13.33 5.32 13.66 6 14 C6 12.68 6 11.36 6 10 C5.34 10 4.68 10 4 10 C3.67 8.35 3.34 6.7 3 5 C2.34 5 1.68 5 1 5 C0.67 3.35 0.34 1.7 0 0 Z " fill="#8FC649" transform="translate(80,55)"/>
<path d="M0 0 C0.66 0 1.32 0 2 0 C5 6.625 5 6.625 5 10 C5.99 10 6.98 10 8 10 C8.12375 10.639375 8.2475 11.27875 8.375 11.9375 C8.58125 12.618125 8.7875 13.29875 9 14 C9.66 14.33 10.32 14.66 11 15 C10.67 15.99 10.34 16.98 10 18 C5.28632476 12.97207975 0 7.22340301 0 0 Z " fill="#CB7D45" transform="translate(33,142)"/>
<path d="M0 0 C7.42857143 1 7.42857143 1 11 2 C11 3.32 11 4.64 11 6 C6.48986609 5.46939601 3.61621781 3.69113883 0 1 C0 0.67 0 0.34 0 0 Z " fill="#C87D37" transform="translate(44,160)"/>
<path d="M0 0 C4.62535356 0.56169961 8.16781851 1.82644803 12.3125 3.9375 C13.36050781 4.46214844 14.40851563 4.98679687 15.48828125 5.52734375 C18 7 18 7 19 9 C18.360625 8.731875 17.72125 8.46375 17.0625 8.1875 C13.08797739 6.64635858 9.05115505 5.32390688 5 4 C5 3.34 5 2.68 5 2 C3.35 1.67 1.7 1.34 0 1 C0 0.67 0 0.34 0 0 Z " fill="#9AAD61" transform="translate(60,32)"/>
<path d="M0 0 C2.475 0.495 2.475 0.495 5 1 C6.3125 3.5625 6.3125 3.5625 7 6 C5.68 5.67 4.36 5.34 3 5 C3 4.34 3 3.68 3 3 C2.34 3 1.68 3 1 3 C1 7.29 1 11.58 1 16 C0.67 16 0.34 16 0 16 C0 10.72 0 5.44 0 0 Z " fill="#81A636" transform="translate(60,33)"/>
<path d="M0 0 C5.01202555 2.98334854 8.38748484 6.43951988 12 11 C11.01 11.33 10.02 11.66 9 12 C8.5978125 11.0409375 8.5978125 11.0409375 8.1875 10.0625 C7.11332248 7.66868314 7.11332248 7.66868314 4 7 C4 6.01 4 5.02 4 4 C2.68 3.67 1.36 3.34 0 3 C0 2.01 0 1.02 0 0 Z " fill="#C2793E" transform="translate(152,73)"/>
<path d="M0 0 C1.58409994 0.11487748 3.16728963 0.24234508 4.75 0.375 C6.07257813 0.47941406 6.07257813 0.47941406 7.421875 0.5859375 C9.99066382 0.99850055 11.75841015 1.71160957 14 3 C14.33 2.34 14.66 1.68 15 1 C14.67 2.32 14.34 3.64 14 5 C7.25 5.125 7.25 5.125 5 4 C5 3.34 5 2.68 5 2 C3.35 1.67 1.7 1.34 0 1 C0 0.67 0 0.34 0 0 Z " fill="#C07F31" transform="translate(82,74)"/>
<path d="M0 0 C8.71428571 1.85714286 8.71428571 1.85714286 11 5 C9.02 4.34 7.04 3.68 5 3 C5.33 4.65 5.66 6.3 6 8 C3.5625 6.8125 3.5625 6.8125 1 5 C0.1875 2.3125 0.1875 2.3125 0 0 Z " fill="#93B83C" transform="translate(66,36)"/>
<path d="M0 0 C2.25 0.25 2.25 0.25 4 1 C3.01 2.485 3.01 2.485 2 4 C2.66 4.33 3.32 4.66 4 5 C3.67 5.66 3.34 6.32 3 7 C2.34 7 1.68 7 1 7 C1 6.34 1 5.68 1 5 C0.01 5.33 -0.98 5.66 -2 6 C-2.66 5.34 -3.32 4.68 -4 4 C-2.25 1.9375 -2.25 1.9375 0 0 Z " fill="#CD7A31" transform="translate(46,73)"/>
<path d="M0 0 C5.12175145 0.93122754 10.06435656 2.35478552 15 4 C12 6 12 6 9.1875 5.875 C5.5110433 4.86577659 3.02009247 3.30102284 0 1 C0 0.67 0 0.34 0 0 Z " fill="#B78541" transform="translate(68,69)"/>
<path d="M0 0 C3.26460973 1.80412643 4.88929795 2.83394693 7 6 C6.67 6.99 6.34 7.98 6 9 C4.0625 8.25 4.0625 8.25 2 7 C1.375 4.9375 1.375 4.9375 1 3 C0.34 2.67 -0.32 2.34 -1 2 C-0.67 1.34 -0.34 0.68 0 0 Z " fill="#9FB854" transform="translate(80,41)"/>
<path d="M0 0 C2 0 2 0 3.625 1.375 C5 3 5 3 5 5 C5.66 5 6.32 5 7 5 C7 5.99 7 6.98 7 8 C7.66 8 8.32 8 9 8 C9.33 8.99 9.66 9.98 10 11 C5.78771439 9.43989422 3.65453155 6.5154607 1 3 C0.67 2.01 0.34 1.02 0 0 Z " fill="#94C948" transform="translate(63,53)"/>
<path d="M0 0 C3 1 3 1 4.6875 3.875 C6 7 6 7 6 10 C5.34 10 4.68 10 4 10 C3.32845067 8.71086513 2.66291141 7.41859796 2 6.125 C1.62875 5.40570313 1.2575 4.68640625 0.875 3.9453125 C0 2 0 2 0 0 Z " fill="#67AD32" transform="translate(85,60)"/>
<path d="M0 0 C1.32 0.33 2.64 0.66 4 1 C3.27683594 1.61488281 3.27683594 1.61488281 2.5390625 2.2421875 C1.90742187 2.78101562 1.27578125 3.31984375 0.625 3.875 C-0.00148438 4.40867187 -0.62796875 4.94234375 -1.2734375 5.4921875 C-2.55836651 6.61432007 -3.79371975 7.79371975 -5 9 C-4.75 6.625 -4.75 6.625 -4 4 C-1.9375 2.6875 -1.9375 2.6875 0 2 C0 1.34 0 0.68 0 0 Z " fill="#BB7642" transform="translate(68,94)"/>
<path d="M0 0 C0.33 1.32 0.66 2.64 1 4 C-0.65 5.32 -2.3 6.64 -4 8 C-4.33 7.34 -4.66 6.68 -5 6 C-3.35 4.02 -1.7 2.04 0 0 Z " fill="#CB7B40" transform="translate(41,78)"/>
<path d="M0 0 C3.12290635 0.48578543 5.99580359 0.9986012 9 2 C9 2.66 9 3.32 9 4 C4.545 3.01 4.545 3.01 0 2 C0 1.34 0 0.68 0 0 Z " fill="#C27C45" transform="translate(141,69)"/>
<path d="M0 0 C0.66 0 1.32 0 2 0 C1.49701212 4.40114397 -0.08772731 6.71195019 -3 10 C-2.39009109 6.44219804 -1.4216319 3.3171411 0 0 Z " fill="#B77642" transform="translate(165,144)"/>
</svg>
